<svg width="30" height="31" viewBox="0 0 30 31" fill="none" xmlns="http://www.w3.org/2000/svg">
<path d="M15 30.5293C12.925 30.5293 10.975 30.1353 9.15 29.3473C7.325 28.5593 5.7375 27.4908 4.3875 26.1418C3.0375 24.7918 1.969 23.2043 1.182 21.3793C0.395 19.5543 0.001 17.6043 0 15.5293C0 13.4543 0.394 11.5043 1.182 9.6793C1.97 7.8543 3.0385 6.2668 4.3875 4.9168C5.7375 3.5668 7.325 2.4983 9.15 1.7113C10.975 0.924297 12.925 0.530297 15 0.529297C17.075 0.529297 19.025 0.923297 20.85 1.7113C22.675 2.4993 24.2625 3.5678 25.6125 4.9168C26.9625 6.2668 28.0315 7.8543 28.8195 9.6793C29.6075 11.5043 30.001 13.4543 30 15.5293C30 17.6043 29.606 19.5543 28.818 21.3793C28.03 23.2043 26.9615 24.7918 25.6125 26.1418C24.2625 27.4918 22.675 28.5608 20.85 29.3488C19.025 30.1368 17.075 30.5303 15 30.5293ZM15 27.5293C18.35 27.5293 21.1875 26.3668 23.5125 24.0418C25.8375 21.7168 27 18.8793 27 15.5293C27 12.1793 25.8375 9.3418 23.5125 7.0168C21.1875 4.6918 18.35 3.5293 15 3.5293C11.65 3.5293 8.8125 4.6918 6.4875 7.0168C4.1625 9.3418 3 12.1793 3 15.5293C3 18.8793 4.1625 21.7168 6.4875 24.0418C8.8125 26.3668 11.65 27.5293 15 27.5293ZM15 24.5293C12.5 24.5293 10.375 23.6543 8.625 21.9043C6.875 20.1543 6 18.0293 6 15.5293C6 13.0293 6.875 10.9043 8.625 9.1543C10.375 7.4043 12.5 6.5293 15 6.5293C17.5 6.5293 19.625 7.4043 21.375 9.1543C23.125 10.9043 24 13.0293 24 15.5293C24 18.0293 23.125 20.1543 21.375 21.9043C19.625 23.6543 17.5 24.5293 15 24.5293ZM15 21.5293C16.65 21.5293 18.0625 20.9418 19.2375 19.7668C20.4125 18.5918 21 17.1793 21 15.5293C21 13.8793 20.4125 12.4668 19.2375 11.2918C18.0625 10.1168 16.65 9.5293 15 9.5293C13.35 9.5293 11.9375 10.1168 10.7625 11.2918C9.5875 12.4668 9 13.8793 9 15.5293C9 17.1793 9.5875 18.5918 10.7625 19.7668C11.9375 20.9418 13.35 21.5293 15 21.5293ZM15 18.5293C14.175 18.5293 13.4685 18.2353 12.8805 17.6473C12.2925 17.0593 11.999 16.3533 12 15.5293C12 14.7043 12.294 13.9978 12.882 13.4098C13.47 12.8218 14.176 12.5283 15 12.5293C15.825 12.5293 16.5315 12.8233 17.1195 13.4113C17.7075 13.9993 18.001 14.7053 18 15.5293C18 16.3543 17.706 17.0608 17.118 17.6488C16.53 18.2368 15.824 18.5303 15 18.5293Z" fill="white"/>
</svg>
